<svg width="49" height="49" viewBox="0 0 49 49" fill="none" xmlns="http://www.w3.org/2000/svg">
<path d="M24.5 44.2341C35.3988 44.2341 44.234 35.3989 44.234 24.5001C44.234 13.6013 35.3988 4.76611 24.5 4.76611C13.6012 4.76611 4.76599 13.6013 4.76599 24.5001C4.76599 35.3989 13.6012 44.2341 24.5 44.2341Z" fill="url(#paint0_linear_267_16)"/>
<path d="M19.515 16.5271H16.492V32.5231H19.515V16.5271Z" fill="black"/>
<path d="M32.488 16.457H29.535V31.047H32.488V16.457Z" fill="url(#paint1_linear_267_16)"/>
<path d="M37.281 38.5941L34.668 39.5901L16.492 16.5271H20.008L37.281 38.5941Z" fill="url(#paint2_linear_267_16)"/>
<defs>
<linearGradient id="paint0_linear_267_16" x1="24.5" y1="44.2341" x2="24.5" y2="4.76611" gradientUnits="userSpaceOnUse">
<stop stop-color="white"/>
<stop offset="0.465" stop-color="white"/>
<stop offset="1" stop-color="#BDBDBD"/>
</linearGradient>
<linearGradient id="paint1_linear_267_16" x1="31.012" y1="33.521" x2="31.012" y2="18.931" gradientUnits="userSpaceOnUse">
<stop offset="0.377" stop-opacity="0"/>
<stop offset="0.666" stop-opacity="0.3"/>
<stop offset="0.988"/>
</linearGradient>
<linearGradient id="paint2_linear_267_16" x1="22.602" y1="21.9431" x2="37.161" y2="41.0291" gradientUnits="userSpaceOnUse">
<stop offset="0.296"/>
<stop offset="0.521" stop-opacity="0.5"/>
<stop offset="0.838" stop-opacity="0"/>
</linearGradient>
</defs>
</svg>
