<svg width="51" height="51" viewBox="0 0 51 51" fill="none" xmlns="http://www.w3.org/2000/svg">
<path d="M35.4023 2.5C33.3633 2.5 31.5977 3.05078 30.375 3.59375C29.1758 3.19141 27.1875 2.50391 24.8008 3C23.4102 3.24219 22.1328 3.81641 20.9609 4.69531C19.0312 3.76562 17.0156 3.19531 14.9023 3.10156C13.6016 3 8.30078 3.60156 6.39844 6.39844C5.69922 7.5 5 8.89844 4.69922 10.5977C4.39844 12.0977 4.39844 13.8008 4.89844 17.3008C5.19922 19.6992 5.60156 21.3008 6.5 24.5977C6.60156 24.8984 7.10156 26.5 8.60156 30.9023C8.89844 31.6992 9.5 33.1992 10.6992 34.5977C11.5 35.5977 12.3008 36.1992 13.3008 36.1992C14.6016 36.1992 15.5 35.3008 16.3008 34.3008C16.3594 34.2344 16.4219 34.1602 16.4805 34.0938C16.4062 34.2109 16.3398 34.3398 16.3008 34.5C16.1016 35.5 17.3008 36.3008 18.3008 36.6992C19.1016 37.0977 20 37.1992 20.6992 37.1992C21.5977 37.1992 22.3008 37 22.6992 36.9023C23.043 36.7852 23.7852 36.4648 24.5781 35.9375C24.6133 38.4922 24.6367 41.5078 24.6992 42.1992C25 44.8008 25.6992 46.5977 27 47.5977C28 48.3984 29.8008 48.5 29.9023 48.5C31.6992 48.5 34.5 47.3008 35.6992 45.4023C36.3008 44.5 36.5 43.6992 36.6992 42.5977C36.8984 42 37.0977 38.5 37.1992 37.8008C37.3359 36.6953 37.4414 35.6055 37.5469 34.5469C38.207 34.7188 39.0195 34.9023 39.9023 34.9023C41.5 34.9023 43.6016 33.8008 44 33.5977C44.8008 33 46.3984 31.6016 45.6992 30.4023C45.3008 29.6992 44.6992 29.6992 43.1992 29.9023C43.1992 29.9023 40.8008 30.1992 40.5977 30.0977C40.4531 30.043 40.2305 29.9023 39.9805 29.7188C40.5 28.9141 40.9609 28.1172 41.5 27.4023C42.6992 25.1016 43.4023 23.3008 43.9023 21.9023C44.8008 19.4023 45.3008 17.3984 45.5977 16C46.3008 13 46.5 11.6016 46.0977 10C45.3008 7.19922 42.3984 4.80078 41.1992 4.10156C40.3984 3.69922 38.4023 2.5 35.4023 2.5ZM35.4023 4.5C37.9023 4.5 39.6016 5.5 40.5 5.89844C41.6016 6.5 44.1016 8.5 44.3008 10.3984C44.4023 11.5 44.5 12.6016 43.8008 15.5C43.4023 16.8984 43 18.6992 42.0977 21.1992C41.5977 22.5977 41 24.3008 39.8008 26.4023C39.7695 26.4531 39.7344 26.5078 39.7031 26.5625C39.8203 26.1406 39.9023 25.8008 39.9023 25.8008C40.1016 24.8008 40.1016 24 40 22.8008C39.8984 22.1992 39.8008 20.6992 39.8008 20.0977C39.8008 19.8008 40.0977 16.6992 40.1992 15.5977C40.3008 13.8008 39.1992 11.5977 38.9023 11.1992C37.4023 8.89844 36.6016 7.60156 35 6.30078C34.6016 5.96094 33.918 5.39453 32.9883 4.82422C33.7227 4.64453 34.5352 4.5 35.4023 4.5ZM26.5664 4.91016C27.8711 4.94141 28.9766 5.30078 29.8008 5.60156C31.9023 6.30078 33.1992 7.39844 33.8008 7.89844C35.1016 9 35.8008 10.1016 37.3008 12.4023C37.4102 12.6211 37.6953 13.0859 37.9219 13.7344C35.875 13.5469 34.5156 14.2656 33.6992 15C32.5 16 32.5977 17.5 32.6992 18.5977C32.6992 19.3984 32.9023 20.4023 34.4023 23.8008C35 25.3008 35.5977 26.8984 36.1992 28C36.5117 28.6211 36.8945 29.1914 37.3047 29.6992C37.0664 29.8203 36.8242 29.9766 36.5977 30.1992C36 30.8984 35.8984 31.6016 35.6992 32.9023C35.5 33.9023 35.3008 36 35.1992 37.6992C35.1992 38.3984 34.9023 41.8008 34.8008 42.3008C34.5 43.3008 34.3984 43.8008 34 44.4023C33.3008 45.5 31.1016 46.4023 29.8008 46.3008C29.4023 46.3008 28.8008 46.3008 28.3008 45.9023C27.1992 45.1016 26.8008 43.3008 26.6992 41.9023C26.5977 40.9023 26.6992 33.6992 26.5 32.0977C26.3984 31.6992 26.3008 30.6992 25.5 30C25.1641 29.7188 24.4687 29.5742 23.8125 29.4766C23.8203 29.1406 23.8398 28.8047 23.9023 28.5C24 27.8984 24.1992 27.5977 24.4023 27.0977C24.5 26.8008 24.6992 26.4023 24.9023 25.9023C25.8008 23.1016 25.5977 19.3984 25.0977 17.0977C25 16.8984 24.5977 15.3008 23.1992 14.4023C21.6992 13.5 20.0977 14 19.1992 14.3008C18.8281 14.4023 18.4609 14.5625 18.0937 14.75C18.1562 14.332 18.2109 13.9102 18.3008 13.5C18.6992 11.5 19.1016 9.80078 20.4023 8.10156C21.8008 6.39844 23.3984 5.30078 25.1992 5C25.6758 4.92578 26.1328 4.89844 26.5664 4.91016ZM14.2187 5.08594C14.4531 5.08203 14.6523 5.08594 14.8008 5.10156C16.3633 5.18359 17.8594 5.55078 19.3437 6.17578C19.1602 6.37891 18.9766 6.58203 18.8008 6.80078C17.1016 8.80078 16.6992 10.8984 16.3008 13C15.8008 15.5 15.6992 18.0977 16.0977 20.6992L15.9023 22.5977C15.8008 23.5977 15.5977 25.5 16.6992 27.5C17.0859 28.1641 17.5117 28.7266 17.9805 29.207C16.9648 30.5508 15.8867 31.8203 14.8008 33C14.1992 33.6992 13.6992 34.1992 13.3008 34.1992C13.1992 34.1992 12.8008 34 12.1992 33.3008C11.0977 32.1016 10.6992 30.8008 10.5 30.3008C9.30078 26.6992 8.60156 24.3984 8.5 24.0977C7.69922 20.8984 7.30078 19.3008 6.89844 17C6.39844 13.8008 6.39844 12.1992 6.69922 10.9023C7 9.5 7.5 8.39844 8 7.60156C9.22656 5.67578 12.5937 5.12891 14.2187 5.08594ZM37.1641 15.625C37.4844 15.625 37.832 15.6641 38.1992 15.7422C38.1875 16.6758 37.8008 19.6055 37.8008 20C37.8008 20.8008 38 22.3984 38 23C38.1016 24.1016 38.1016 24.6992 38 25.5C38 25.5 37.8516 26.2148 37.6992 26.7227C37.2344 25.6719 36.7187 24.418 36.0977 23C34.5977 19.6016 34.5 18.9023 34.5 18.4023C34.5 17.6992 34.5 16.8008 35.0977 16.4023C35.6602 15.9023 36.3437 15.6328 37.1641 15.625ZM21.6406 15.918C21.8398 15.9414 22.0234 16 22.1992 16.0977C23 16.5 23.1992 17.5 23.1992 17.5C23.6992 19.6992 23.8984 23 23.0977 25.1992C23 25.5977 22.8008 25.8984 22.6992 26.1992C22.5 26.6992 22.3008 27.1992 22.0977 28.0977C22.0469 28.4688 22.0234 28.8359 22.0117 29.2031C21.3203 29.0586 20.668 28.8125 20.1992 28.5C19.3984 28.1016 18.8008 27.3984 18.4023 26.5977C17.6992 25.0977 17.8008 23.6992 17.9023 22.9023L18.0977 20.5977C17.957 19.4727 17.8906 18.3438 17.9062 17.2227C18.3672 16.8281 18.9687 16.4258 19.8008 16.1992C20.4023 16.0508 21.0586 15.8437 21.6406 15.918ZM36.3867 16.5898C36.125 16.6016 35.8477 16.6484 35.6992 16.6992C35.3008 16.8008 35.1992 16.8008 35.0977 17C35 17.1992 35.3008 17.5 35.4023 17.6992C35.5 17.6992 35.8008 18 36.1992 17.9023C36.5 17.8008 36.6992 17.6016 36.8008 17.5C36.9023 17.3984 37.3008 16.8984 37 16.6992C36.8984 16.5977 36.6484 16.5742 36.3867 16.5898ZM21.4141 17.3164C21.3047 17.3242 21.1992 17.3516 21.0977 17.4023C21 17.4023 20.8008 17.5 20.6992 17.6992C20.5977 17.8984 20.6992 18.0977 20.8008 18.1992C21 18.5 21.3008 18.8008 21.8008 18.8008C21.9023 18.8008 22.3008 18.8008 22.5977 18.5C22.5977 18.5 22.9023 18.1992 22.9023 17.9023C22.8008 17.6992 22.6016 17.6016 22.3008 17.5C22.0742 17.4258 21.7383 17.293 21.4141 17.3164ZM19.5742 30.4023C20.1875 30.7305 20.9258 30.9961 21.7344 31.1797C21.5195 31.6094 21.2109 31.9648 20.9023 32.1992C20.1992 32.6992 19.3008 33 18.4023 33.1992C18.1992 33.1992 18.1016 33.3008 17.9023 33.3008C17.418 33.4375 16.9492 33.5898 16.6289 33.9219C17.6094 32.832 18.5937 31.6289 19.5742 30.4023ZM38.8555 31.2031C39.293 31.5312 39.7227 31.7734 40.0977 31.9023C40.6992 32.1016 41.1992 32.1016 43 31.9023C42.6992 32.1992 41.8008 32.6992 40.5 32.9023C39.6641 32.9844 38.625 32.7852 37.7812 32.543C37.8594 31.9766 37.9492 31.6523 38.0977 31.5C38.1523 31.4492 38.4844 31.3477 38.8555 31.2031ZM23.7969 31.5039C24.0039 31.5391 24.168 31.5664 24.1992 31.5977C24.3984 31.8008 24.5 32.3008 24.5 32.5C24.5117 32.6719 24.5195 33.1055 24.5273 33.4062C23.7031 34.3711 22.3789 34.9062 22.0977 35C21.6992 35.1992 20.5 35.3984 19.3008 35C20.3008 34.6992 21.3008 34.4023 22.0977 33.8008C22.7969 33.3008 23.3984 32.5039 23.7969 31.5039Z" fill="white"/>
</svg>
