<svg width="51" height="51" viewBox="0 0 51 51" fill="none" xmlns="http://www.w3.org/2000/svg">
<g clip-path="url(#clip0_267_14)">
<path d="M45.174 38.0679L27.905 1.98993C27.015 0.130933 24.432 -0.0220673 23.33 1.71893L4.17902 31.9609C3.76602 32.6129 3.77802 33.4469 4.20902 34.0869L13.856 48.4099C14.455 49.2989 15.556 49.6999 16.585 49.4039L43.579 41.6289C45.096 41.1919 45.857 39.4939 45.174 38.0679ZM41.36 39.3649L18.657 45.7339C18.131 45.8819 17.637 45.4159 17.751 44.8809L25.8 7.24893C25.945 6.57093 26.864 6.46093 27.164 7.08593L42.007 37.9669C42.266 38.5329 41.959 39.1969 41.36 39.3649Z" fill="white"/>
</g>
<defs>
<clipPath id="clip0_267_14">
<rect width="50" height="50" fill="white" transform="translate(0.5 0.5)"/>
</clipPath>
</defs>
</svg>
