<svg width="51" height="51" viewBox="0 0 51 51" fill="none" xmlns="http://www.w3.org/2000/svg">
<path fill-rule="evenodd" clip-rule="evenodd" d="M35.0547 4.4844C34.275 4.45818 33.4589 4.59412 32.6406 4.8594C31.0041 5.38996 29.2892 6.42391 27.5293 7.85549C26.8396 8.41653 26.1436 9.05785 25.4453 9.7383C24.7624 9.07513 24.0807 8.45102 23.4062 7.90237C21.6478 6.47193 19.9375 5.43759 18.3047 4.90823C16.6719 4.37886 15.0472 4.36246 13.7129 5.13284C12.3786 5.90321 11.5806 7.31738 11.2227 8.99612C10.8647 10.6749 10.9041 12.674 11.2637 14.9121C11.3886 15.6895 11.5667 16.5051 11.7695 17.336C11.0071 17.567 10.2667 17.81 9.58008 18.0781C7.50798 18.8875 5.79345 19.8557 4.54492 21.0078C3.2964 22.16 2.49023 23.5583 2.49023 25.0938C2.49023 26.6292 3.2964 28.0256 4.54492 29.1778C5.79345 30.3299 7.50798 31.3001 9.58008 32.1094C10.3143 32.3961 11.1091 32.6543 11.9297 32.8985C11.6345 34.0013 11.3954 35.0715 11.2324 36.086C10.8726 38.3259 10.8346 40.3253 11.1934 42.0078C11.5521 43.6904 12.3505 45.1126 13.6914 45.8867C15.0323 46.6609 16.6643 46.6419 18.3008 46.1114C19.9373 45.5808 21.6503 44.5488 23.4102 43.1172C24.0935 42.5613 24.7848 41.9272 25.4766 41.2539C26.172 41.9313 26.866 42.5684 27.5527 43.127C29.3112 44.5574 31.0234 45.5898 32.6562 46.1192C34.2891 46.6485 35.9137 46.6649 37.248 45.8946C38.5824 45.1242 39.3784 43.71 39.7363 42.0313C40.0943 40.3525 40.0549 38.3553 39.6953 36.1172C39.5319 35.1 39.2926 34.0262 38.9961 32.9199C39.8438 32.6699 40.6637 32.4047 41.4199 32.1094C43.492 31.3001 45.2066 30.3299 46.4551 29.1778C47.7036 28.0256 48.5098 26.6292 48.5098 25.0938C48.5098 23.5583 47.7036 22.16 46.4551 21.0078C45.2066 19.8557 43.492 18.8875 41.4199 18.0781C40.7235 17.8061 39.9717 17.56 39.1973 17.3262C39.4018 16.4902 39.5833 15.6688 39.709 14.8867C40.0688 12.6468 40.1068 10.6455 39.748 8.96291C39.3893 7.28037 38.589 5.86015 37.248 5.08596C36.5776 4.69887 35.8344 4.51061 35.0547 4.4844ZM34.9629 6.51955C35.4522 6.53293 35.8695 6.64936 36.2266 6.85549C36.9406 7.26775 37.4684 8.07012 37.75 9.39065C38.0316 10.7112 38.0218 12.4954 37.6895 14.5645C37.5756 15.2729 37.4104 16.0237 37.2227 16.793C35.1772 16.3007 32.9357 15.9354 30.5469 15.7207C29.3476 14.0594 28.1154 12.5458 26.873 11.2031C27.5302 10.5617 28.1831 9.96175 28.8203 9.44338C30.446 8.12096 31.9851 7.22112 33.2695 6.80471C33.9117 6.59651 34.4736 6.50618 34.9629 6.51955ZM15.9863 6.52541C16.4784 6.51168 17.0415 6.60176 17.6855 6.81057C18.9737 7.22818 20.5155 8.12762 22.1426 9.45119C22.767 9.95916 23.4053 10.5477 24.0488 11.1739C22.7973 12.5275 21.5549 14.0542 20.3477 15.7305C17.9689 15.9491 15.7366 16.3164 13.7012 16.8106C13.5148 16.0456 13.3496 15.2986 13.2363 14.5938C12.9036 12.5229 12.8953 10.7384 13.1777 9.41409C13.4601 8.08974 13.9922 7.28133 14.7129 6.86526C15.0732 6.65722 15.4942 6.53915 15.9863 6.52541ZM25.4766 12.6426C26.2912 13.5291 27.106 14.4992 27.9141 15.543C27.12 15.5099 26.3163 15.4903 25.5 15.4903C24.6675 15.4903 23.8484 15.5105 23.0391 15.5449C23.8474 14.5003 24.6618 13.5298 25.4766 12.6426ZM25.5 17.5098C26.8599 17.5098 28.1853 17.5657 29.4746 17.6602C30.3617 18.9343 31.2286 20.2861 32.0547 21.7168C32.7805 22.974 33.4373 24.2292 34.0352 25.4688C33.431 26.7248 32.7632 27.997 32.0273 29.2715C31.3796 30.3934 30.7032 31.459 30.0156 32.4864C28.5593 32.6081 27.0503 32.6758 25.5 32.6758C23.9124 32.6758 22.3695 32.6041 20.8809 32.4766C20.2047 31.464 19.5397 30.4146 18.9023 29.3106C18.1682 28.039 17.5036 26.7691 16.9004 25.5156C17.5061 24.2551 18.1737 22.9782 18.9121 21.6992C19.7338 20.276 20.5982 18.9321 21.4805 17.6641C22.7836 17.5674 24.1244 17.5098 25.5 17.5098ZM32.0488 17.9102C33.6973 18.1159 35.2451 18.4014 36.6855 18.7442C36.2581 20.1453 35.7317 21.6088 35.0938 23.1192C34.6796 22.3207 34.2506 21.5196 33.7871 20.7168C33.2254 19.7439 32.6404 18.8164 32.0488 17.9102ZM18.8438 17.9258C18.2647 18.8151 17.6948 19.7246 17.1445 20.6778C16.6751 21.4908 16.2372 22.3028 15.8184 23.1114C15.186 21.6101 14.6627 20.1549 14.2383 18.7617C15.668 18.4184 17.2068 18.1338 18.8438 17.9258ZM38.6641 19.2754C39.3729 19.4899 40.0576 19.7137 40.6855 19.959C42.5957 20.7051 44.1066 21.5885 45.0859 22.4922C46.0652 23.3959 46.4902 24.2577 46.4902 25.0938C46.4902 25.9298 46.0652 26.7916 45.0859 27.6953C44.1066 28.599 42.5957 29.4825 40.6855 30.2285C39.9877 30.5011 39.221 30.7483 38.4238 30.9824C37.8552 29.2237 37.1294 27.3888 36.2656 25.5156C37.2588 23.3651 38.0611 21.2683 38.6641 19.2754ZM12.3027 19.2852C12.8988 21.2582 13.6908 23.3341 14.6699 25.4629C13.8005 27.347 13.0711 29.1923 12.5 30.961C11.731 30.7329 10.9902 30.4925 10.3145 30.2285C8.4043 29.4825 6.89335 28.599 5.91406 27.6953C4.93477 26.7916 4.50977 25.9298 4.50977 25.0938C4.50977 24.2577 4.93477 23.3959 5.91406 22.4922C6.89335 21.5885 8.4043 20.7051 10.3145 19.959C10.9328 19.7175 11.6059 19.4969 12.3027 19.2852ZM25.5 20.5C22.7504 20.5 20.5 22.7504 20.5 25.5C20.5 28.2496 22.7504 30.5 25.5 30.5C28.2496 30.5 30.5 28.2496 30.5 25.5C30.5 22.7504 28.2496 20.5 25.5 20.5ZM15.8418 27.8653C16.2625 28.6779 16.7 29.4933 17.1719 30.3106C17.541 30.95 17.9181 31.5724 18.3008 32.1836C16.9578 31.9974 15.6812 31.7616 14.4824 31.4824C14.8637 30.3148 15.3197 29.1028 15.8418 27.8653ZM35.1191 27.8653C35.6433 29.1057 36.0996 30.3197 36.4824 31.4903C35.2798 31.7691 33.9993 32.0041 32.6523 32.1895C33.0401 31.5708 33.423 30.9406 33.7969 30.293C34.2653 29.4817 34.7011 28.6719 35.1191 27.8653ZM13.9062 33.4239C15.7161 33.8526 17.6777 34.1819 19.7578 34.3965C21.1464 36.4049 22.593 38.2095 24.0488 39.7871C23.3978 40.4219 22.7526 41.0176 22.1211 41.5313C20.4954 42.8537 18.9543 43.7516 17.6699 44.168C16.3855 44.5844 15.4269 44.5295 14.7129 44.1172C13.9988 43.7049 13.473 42.9026 13.1914 41.5821C12.9098 40.2615 12.9176 38.4793 13.25 36.4102C13.4008 35.4715 13.6262 34.4664 13.9062 33.4239ZM37.0605 33.4317C37.343 34.4806 37.569 35.4894 37.7207 36.4336C38.0534 38.5045 38.0617 40.289 37.7793 41.6133C37.4969 42.9376 36.9687 43.748 36.248 44.1641C35.5274 44.5802 34.5596 44.6344 33.2715 44.2168C31.9834 43.7992 30.4416 42.8998 28.8145 41.5762C28.1784 41.0588 27.5287 40.4583 26.873 39.8184C28.3387 38.2346 29.7955 36.4208 31.1934 34.4004C33.2787 34.1873 35.2458 33.8599 37.0605 33.4317ZM22.3672 34.6016C23.394 34.6575 24.4342 34.6953 25.5 34.6953C26.5305 34.6953 27.5371 34.6598 28.5312 34.6074C27.515 35.9786 26.479 37.2252 25.4473 38.3477C24.4161 37.2228 23.3821 35.974 22.3672 34.6016Z" fill="white"/>
</svg>
