<svg width="51" height="51" viewBox="0 0 51 51" fill="none" xmlns="http://www.w3.org/2000/svg">
<g clip-path="url(#clip0_267_12)">
<path d="M38 27.5833C34.1292 27.5833 30.7312 24.8812 26.025 21.1416C22.8562 18.6228 15.5958 17.7687 14.4583 18.6541L11.5271 15.6937C15.8042 11.4145 18.3875 8.83325 23.4167 8.83325C29.7042 8.83325 34.2792 12.3499 37.9562 15.1791C39.1104 16.0645 40.2 16.902 41.1375 17.4541C41.85 17.8728 43.3729 18.3624 44.6479 17.9812C45.4625 17.7416 46.0833 17.1687 46.5521 16.2353L50.3729 17.8791C48.1646 23.9562 43.5396 27.5833 38 27.5833ZM19.2146 14.3187C22.7708 14.8062 26.5312 16.2208 28.6187 17.8791C33.0667 21.4166 35.6958 23.4166 38 23.4166C39.5521 23.4166 40.9896 22.9853 42.2542 22.1687C40.9812 21.9666 39.8417 21.5228 39.0292 21.0458C37.8687 20.3624 36.6792 19.4478 35.4208 18.4812C32.075 15.9103 28.2854 12.9999 23.4167 12.9999C21.7792 12.9999 20.5854 13.3666 19.2146 14.3187ZM27.5833 42.1666C23.7125 42.1666 20.3146 39.4645 15.6083 35.7249C12.4417 33.2083 5.17916 32.3478 4.04166 33.2374L1.11041 30.277C5.3875 25.9978 7.97083 23.4166 13 23.4166C19.2875 23.4166 23.8625 26.9333 27.5396 29.7624C28.6937 30.6478 29.7833 31.4853 30.7208 32.0374C31.4333 32.4562 32.9562 32.9395 34.2312 32.5645C35.0458 32.3249 35.6667 31.752 36.1354 30.8187L39.9562 32.4624C37.7479 38.5395 33.1229 42.1666 27.5833 42.1666ZM8.79791 28.902C12.3542 29.3895 16.1146 30.8041 18.2021 32.4624C22.65 35.9999 25.2792 37.9999 27.5833 37.9999C29.1354 37.9999 30.5729 37.5687 31.8375 36.752C30.5646 36.5499 29.425 36.1062 28.6125 35.6291C27.4521 34.9457 26.2625 34.0312 25.0042 33.0645C21.6583 30.4937 17.8687 27.5833 13 27.5833C11.3625 27.5833 10.1687 27.9499 8.79791 28.902Z" fill="white"/>
</g>
<defs>
<clipPath id="clip0_267_12">
<rect width="50" height="50" fill="white" transform="translate(0.5 0.5)"/>
</clipPath>
</defs>
</svg>
